0
SECTION
2
HEADER
9
$INSUNITS
70
4
9
$ACADVER
1
AC1014
9
$HANDSEED
5
FFFF
0
ENDSEC
0
SECTION
2
TABLES
0
TABLE
2
VPORT
5
8
100
AcDbSymbolTable
0
ENDTAB
0
TABLE
2
LTYPE
5
5
100
AcDbSymbolTable
0
LTYPE
5
14
100
AcDbSymbolTableRecord
100
AcDbLinetypeTableRecord
2
BYBLOCK
70
0
0
LTYPE
5
15
100
AcDbSymbolTableRecord
100
AcDbLinetypeTableRecord
2
BYLAYER
70
0
0
ENDTAB
0
TABLE
2
LAYER
5
2
100
AcDbSymbolTable
70
2
0
LAYER
5
50
100
AcDbSymbolTableRecord
100
AcDbLayerTableRecord
2
0
70
0
6
CONTINUOUS
0
ENDTAB
0
TABLE
2
STYLE
5
3
100
AcDbSymbolTable
70
1
0
STYLE
5
11
100
AcDbSymbolTableRecord
100
AcDbTextStyleTableRecord
2
STANDARD
70
0
0
ENDTAB
0
TABLE
2
VIEW
5
6
100
AcDbSymbolTable
70
0
0
ENDTAB
0
TABLE
2
UCS
5
7
100
AcDbSymbolTable
70
0
0
ENDTAB
0
TABLE
2
APPID
5
9
100
AcDbSymbolTable
70
2
0
APPID
5
12
100
AcDbSymbolTableRecord
100
AcDbRegAppTableRecord
2
ACAD
70
0
0
ENDTAB
0
TABLE
2
DIMSTYLE
5
A
100
AcDbSymbolTable
70
1
0
ENDTAB
0
TABLE
2
BLOCK_RECORD
5
1
100
AcDbSymbolTable
70
1
0
BLOCK_RECORD
5
1F
100
AcDbSymbolTableRecord
100
AcDbBlockTableRecord
2
*MODEL_SPACE
0
BLOCK_RECORD
5
1B
100
AcDbSymbolTableRecord
100
AcDbBlockTableRecord
2
*PAPER_SPACE
0
ENDTAB
0
ENDSEC
0
SECTION
2
BLOCKS
0
BLOCK
5
20
100
AcDbEntity
100
AcDbBlockBegin
2
*MODEL_SPACE
0
ENDBLK
5
21
100
AcDbEntity
100
AcDbBlockEnd
0
BLOCK
5
1C
100
AcDbEntity
100
AcDbBlockBegin
2
*PAPER_SPACE
0
ENDBLK
5
1D
100
AcDbEntity
100
AcDbBlockEnd
0
ENDSEC
0
SECTION
2
ENTITIES
0
SPLINE
5
100
100
AcDbEntity
8
0
100
AcDbSpline
70
0
71
3
72
10
73
6
74
0
42
0.000000001
43
0.0000000001
44
0.0000000001
40
0
40
0
40
0
40
0
40
0.086660392898110269
40
0.086660392898110269
40
0.17332078579622101
40
0.17332078579622101
40
0.17332078579622101
40
0.17332078579622101
10
252.04354570103192
20
0.17237843662051264
30
0
10
252.16472201073699
20
-0.089844769281500758
30
0
10
252.2571371185978
20
-0.36442463465545466
30
-1.1102230246251563e-15
10
252.38120823459479
20
-0.92868094978569493
30
0
10
252.41250000000002
20
-1.2167008797341583
30
-1.1102230246251563e-15
10
252.41250000000002
20
-1.5055688560611944
30
0
0
CIRCLE
5
101
100
AcDbEntity
8
0
100
AcDbCircle
10
5.5000000000000124
20
-90.01931473042518
30
0
40
1.5000000000000002
210
0
220
0
230
1
0
CIRCLE
5
102
100
AcDbEntity
8
0
100
AcDbCircle
10
246.91249999999999
20
-90.01931473042518
30
0
40
1.5000000000000002
210
0
220
0
230
1
0
LINE
5
103
100
AcDbEntity
8
0
100
AcDbLine
10
238.85979338434581
20
-0.62942287841635369
30
1.1102230246251563e-15
11
13.552706615654166
21
-0.62942287841636901
31
1.1102230246251561e-15
0
SPLINE
5
104
100
AcDbEntity
8
0
100
AcDbSpline
70
4
71
2
72
6
73
3
74
0
42
0.000000001
43
0.0000000001
44
0.0000000001
40
0.080030904333387373
40
0.080030904333387373
40
0.080030904333387373
40
2.0846219593555566
40
2.0846219593555566
40
2.0846219593555566
41
1.1459958939254935
41
2.9023244302044962
41
1.0466212380566284
10
242.47733677757583
20
1.6637145617686986
30
0
10
246.96204348992811
20
11.168651584702232
30
0
10
252.04354570103192
20
0.17237843662051086
30
0
0
CIRCLE
5
105
100
AcDbEntity
8
0
100
AcDbCircle
10
246.91249999999999
20
3.0354689735924656
30
1.1102230246251563e-15
40
1.5000000000000002
210
0
220
0
230
1
0
CIRCLE
5
106
100
AcDbEntity
8
0
100
AcDbCircle
10
5.5000000000000071
20
3.03546897359245
30
0
40
1.5000000000000002
210
0
220
0
230
1
0
LWPOLYLINE
5
107
100
AcDbEntity
8
0
100
AcDbPolyline
90
8
70
1
43
0.0
10
197.78750000000002
20
-3.6544228784163524
10
197.78750000000002
20
-16.654422878416351
42
0.41421356237308982
10
198.28749999999999
20
-17.154422878416387
10
211.28749999999999
20
-17.154422878416355
42
0.41421356237313145
10
211.78750000000002
20
-16.654422878416355
10
211.78750000000002
20
-3.6544228784163564
42
0.41421356237314216
10
211.28749999999999
20
-3.1544228784163399
10
198.28749999999999
20
-3.1544228784163568
42
0.41421356237298285
0
SPLINE
5
108
100
AcDbEntity
8
0
100
AcDbSpline
70
0
71
3
72
12
73
8
74
0
42
0.000000001
43
0.0000000001
44
0.0000000001
40
0
40
0
40
0
40
0
40
0.15625778935477122
40
0.15625778935477122
40
0.31251557870954361
40
0.31251557870954361
40
0.45331589931572019
40
0.45331589931572019
40
0.45331589931572019
40
0.45331589931572019
10
242.47733677757591
20
-88.647560318601393
30
0
10
242.25507796896829
20
-88.176502540667187
30
0
10
241.94293601691345
20
-87.753360419458346
30
1.1102230246251563e-15
10
241.17402489491116
20
-87.050542292852938
30
0
10
240.72460693437898
20
-86.7775856118121
30
1.1102230246251563e-15
10
239.79482058234223
20
-86.437025921261352
30
0
10
239.32912778636648
20
-86.354422878416344
30
0
10
238.85979338434592
20
-86.354422878416344
30
0
0
LWPOLYLINE
5
109
100
AcDbEntity
8
0
100
AcDbPolyline
90
8
70
1
43
0.0
10
168.92500000000001
20
-3.6544228784163577
42
0.41421356237312623
10
168.42500000000001
20
-3.1544228784163684
10
155.42500000000001
20
-3.154422878416359
42
0.41421356237305601
10
154.92500000000001
20
-3.654422878416359
10
154.92500000000001
20
-16.654422878416355
42
0.414213562373069
10
155.42500000000001
20
-17.154422878416355
10
168.42500000000001
20
-17.154422878416355
42
0.41421356237297796
10
168.92500000000001
20
-16.654422878416359
0
LWPOLYLINE
5
110
100
AcDbEntity
8
0
100
AcDbPolyline
90
8
70
1
43
0.0
10
249.88749999999999
20
-70.329422878416366
42
0.41421356237313667
10
249.38749999999999
20
-69.829422878416366
10
236.38750000000002
20
-69.829422878416366
42
0.4142135623730378
10
235.88750000000005
20
-70.329422878416366
10
235.88750000000002
20
-83.329422878416352
42
0.41421356237312623
10
236.38750000000002
20
-83.829422878416352
10
249.38749999999999
20
-83.829422878416352
42
0.4142135623730534
10
249.88749999999999
20
-83.329422878416352
0
LWPOLYLINE
5
111
100
AcDbEntity
8
0
100
AcDbPolyline
90
8
70
1
43
0.0
10
216.83750000000003
20
-64.279422878416355
42
0.4142135623730846
10
217.33750000000001
20
-64.779422878416383
10
230.33750000000001
20
-64.779422878416355
42
0.414213562373069
10
230.83750000000006
20
-64.279422878416355
10
230.83750000000006
20
-51.279422878416355
42
0.4142135623730846
10
230.33750000000003
20
-50.779422878416369
10
217.33750000000001
20
-50.779422878416362
42
0.4142135623730378
10
216.83750000000003
20
-51.279422878416355
0
SPLINE
5
112
100
AcDbEntity
8
0
100
AcDbSpline
70
4
71
2
72
6
73
3
74
0
42
0.000000001
43
0.0000000001
44
0.0000000001
40
0.080030904333387526
40
0.080030904333387526
40
0.080030904333387526
40
2.0846219593555482
40
2.0846219593555482
40
2.0846219593555482
41
1.1459958939254942
41
2.9023244302044895
41
1.0466212380566409
10
242.47733677757591
20
-88.647560318601393
30
0
10
246.96204348992813
20
-98.152497341534982
30
-1.1102230246251563e-15
10
252.04354570103189
20
-87.15622419345344
30
3.3306690738754696e-15
0
LINE
5
113
100
AcDbEntity
8
0
100
AcDbLine
10
-9.6257727742738008e-16
20
-1.5055688560610989
30
0
11
5.6939716699983073e-15
21
-85.478276900771675
31
1.1102230246251563e-15
0
SPLINE
5
114
100
AcDbEntity
8
0
100
AcDbSpline
70
0
71
3
72
12
73
8
74
0
42
0.000000001
43
0.0000000001
44
0.0000000001
40
0
40
0
40
0
40
0
40
0.15625778935477105
40
0.15625778935477105
40
0.312515578709542
40
0.312515578709542
40
0.45331589931572103
40
0.45331589931572103
40
0.45331589931572103
40
0.45331589931572103
10
9.9351632224241637
20
1.6637145617686968
30
0
10
10.157422031031757
20
1.1926567838344662
30
0
10
10.469563983086614
20
0.76951466262567103
30
0
10
11.238475105088897
20
0.06669653602022485
30
0
10
11.68789306562104
20
-0.20626014502060366
30
0
10
12.617679417657829
20
-0.54681983557135616
30
0
10
13.083372213633568
20
-0.62942287841636824
30
1.1102230246251563e-15
10
13.552706615654165
20
-0.62942287841636824
30
1.1102230246251563e-15
0
LWPOLYLINE
5
115
100
AcDbEntity
8
0
100
AcDbPolyline
90
8
70
1
43
0.0
10
217.33750000000001
20
-26.966922878416359
42
0.41421356237298579
10
216.83750000000003
20
-27.466922878416362
10
216.83750000000003
20
-40.466922878416362
42
0.4142135623730846
10
217.33750000000001
20
-40.966922878416369
10
230.33750000000001
20
-40.966922878416341
42
0.41421356237308982
10
230.83750000000009
20
-40.466922878416362
10
230.83750000000006
20
-27.466922878416362
42
0.41421356237312101
10
230.33750000000001
20
-26.966922878416359
0
LWPOLYLINE
5
116
100
AcDbEntity
8
0
100
AcDbPolyline
90
8
70
1
43
0.0
10
16.525000000000002
20
-3.6544228784163679
42
0.41421356237309148
10
16.024999999999999
20
-3.154422878416367
10
3.0249999999999999
20
-3.1544228784163697
42
0.41421356237309503
10
2.5250000000000004
20
-3.6544228784163701
10
2.5250000000000012
20
-16.654422878416366
42
0.41421356237309209
10
3.0250000000000021
20
-17.154422878416366
10
16.025000000000002
20
-17.154422878416366
42
0.41421356237308982
10
16.525000000000002
20
-16.654422878416366
0
LWPOLYLINE
5
117
100
AcDbEntity
8
0
100
AcDbPolyline
90
8
70
1
43
0.0
10
174.47500000000005
20
-3.1544228784163586
42
0.41421356237313178
10
173.97499999999997
20
-3.6544228784163568
10
173.97500000000005
20
-16.654422878416355
42
0.41421356237313017
10
174.47500000000005
20
-17.154422878416355
10
187.47499999999999
20
-17.154422878416355
42
0.41421356237313145
10
187.97499999999999
20
-16.654422878416359
10
187.97499999999999
20
-3.6544228784163568
42
0.41421356237312917
10
187.47499999999999
20
-3.1544228784163626
0
LWPOLYLINE
5
118
100
AcDbEntity
8
0
100
AcDbPolyline
90
8
70
1
43
0.0
10
131.61250000000001
20
-3.1544228784163613
42
0.41421356237310802
10
131.11250000000001
20
-3.6544228784163568
10
131.11250000000001
20
-16.654422878416359
42
0.41421356237309243
10
131.61250000000001
20
-17.154422878416362
10
144.61250000000001
20
-17.154422878416359
42
0.41421356237305601
10
145.11250000000001
20
-16.654422878416359
10
145.11250000000001
20
-3.6544228784163613
42
0.41421356237305862
10
144.61250000000001
20
-3.1544228784163453
0
SPLINE
5
119
100
AcDbEntity
8
0
100
AcDbSpline
70
4
71
2
72
6
73
3
74
0
42
0.000000001
43
0.0000000001
44
0.0000000001
40
0.080030904333388012
40
0.080030904333388012
40
0.080030904333388012
40
2.0846219593555522
40
2.0846219593555522
40
2.0846219593555522
41
1.1459958939254948
41
2.9023244302044917
41
1.0466212380566369
10
9.935163222424169
20
1.6637145617686986
30
1.1102230246251563e-15
10
5.4504565100719296
20
11.168651584702225
30
0
10
0.36895429896812798
20
0.17237843662062965
30
1.1102230246251563e-15
0
SPLINE
5
120
100
AcDbEntity
8
0
100
AcDbSpline
70
0
71
3
72
10
73
6
74
0
42
0.000000001
43
0.0000000001
44
0.0000000001
40
0
40
0
40
0
40
0
40
0.086660392898112906
40
0.086660392898112906
40
0.17332078579622398
40
0.17332078579622398
40
0.17332078579622398
40
0.17332078579622398
10
0.36895429896813459
20
-87.156224193453369
30
1.1102230246251563e-15
10
0.24777798926303118
20
-86.894000987551365
30
0
10
0.15536288140226806
20
-86.619421122177428
30
0
10
0.031291765405236191
20
-86.055164807047163
30
0
10
5.7130511540673004e-15
20
-85.767144877098673
30
0
10
5.6939716699983073e-15
20
-85.478276900771675
30
0
0
LWPOLYLINE
5
121
100
AcDbEntity
8
0
100
AcDbPolyline
90
8
70
1
43
0.0
10
211.78750000000002
20
-70.329422878416366
42
0.41421356237314189
10
211.28749999999999
20
-69.829422878416352
10
198.28749999999999
20
-69.829422878416366
42
0.41421356237303258
10
197.78750000000005
20
-70.329422878416352
10
197.78750000000002
20
-83.329422878416352
42
0.41421356237307422
10
198.28749999999999
20
-83.829422878416352
10
211.28749999999999
20
-83.829422878416352
42
0.4142135623731783
10
211.78750000000002
20
-83.329422878416352
0
LWPOLYLINE
5
122
100
AcDbEntity
8
0
100
AcDbPolyline
90
8
70
1
43
0.0
10
230.83750000000006
20
-16.654422878416355
10
230.83750000000006
20
-3.6544228784163546
42
0.41421356237310253
10
230.33750000000001
20
-3.1544228784163546
10
217.33750000000001
20
-3.154422878416355
42
0.41421356237304074
10
216.83750000000006
20
-3.6544228784163546
10
216.83750000000003
20
-16.654422878416351
42
0.41421356237308982
10
217.33750000000001
20
-17.154422878416387
10
230.33750000000001
20
-17.154422878416355
42
0.41421356237307161
0
SPLINE
5
123
100
AcDbEntity
8
0
100
AcDbSpline
70
0
71
3
72
12
73
8
74
0
42
0.000000001
43
0.0000000001
44
0.0000000001
40
0
40
0
40
0
40
0
40
0.15625778935477105
40
0.15625778935477105
40
0.31251557870954189
40
0.31251557870954189
40
0.45331589931572103
40
0.45331589931572103
40
0.45331589931572103
40
0.45331589931572103
10
13.552706615654175
20
-86.354422878416344
30
0
10
13.031847317804937
20
-86.354422878416344
30
0
10
12.515967718733387
20
-86.456158281474842
30
-1.1102230246251563e-15
10
11.55224254960469
20
-86.85164713215444
30
-1.1102230246251563e-15
10
11.113610717435201
20
-87.141619490804942
30
0
10
10.408858974567494
20
-87.837182963240664
30
0
10
10.135435552134703
20
-88.223100927290133
30
1.1102230246251563e-15
10
9.9351632224241779
20
-88.647560318601421
30
0
0
SPLINE
5
124
100
AcDbEntity
8
0
100
AcDbSpline
70
0
71
3
72
10
73
6
74
0
42
0.000000001
43
0.0000000001
44
0.0000000001
40
0
40
0
40
0
40
0
40
0.086660392898111394
40
0.086660392898111394
40
0.17332078579622198
40
0.17332078579622198
40
0.17332078579622198
40
0.17332078579622198
10
252.41250000000002
20
-85.478276900771704
30
2.2204460492503127e-15
10
252.41250000000002
20
-85.76714487709873
30
0
10
252.38120823459474
20
-86.055164807047205
30
0
10
252.25713711859768
20
-86.619421122177442
30
0
10
252.16472201073699
20
-86.894000987551379
30
0
10
252.04354570103186
20
-87.156224193453426
30
1.1102230246251563e-15
0
SPLINE
5
125
100
AcDbEntity
8
0
100
AcDbSpline
70
0
71
3
72
12
73
8
74
0
42
0.000000001
43
0.0000000001
44
0.0000000001
40
0
40
0
40
0
40
0
40
0.15625778935477266
40
0.15625778935477266
40
0.31251557870954272
40
0.31251557870954272
40
0.45331589931572103
40
0.45331589931572103
40
0.45331589931572103
40
0.45331589931572103
10
238.85979338434581
20
-0.62942287841635369
30
1.1102230246251563e-15
10
239.38065268219503
20
-0.62942287841635369
30
0
10
239.89653228126656
20
-0.52768747535785521
30
0
10
240.8602574503953
20
-0.13219862467827526
30
0
10
241.2988892825648
20
0.15777373397223418
30
1.1102230246251563e-15
10
242.00364102543247
20
0.85333720640794986
30
-1.1102230246251563e-15
10
242.27706444786531
20
1.2392551704574224
30
0
10
242.4773367775758
20
1.6637145617687104
30
0
0
LINE
5
126
100
AcDbEntity
8
0
100
AcDbLine
10
252.41250000000002
20
-85.478276900771704
30
2.2204460492503127e-15
11
252.41250000000002
21
-1.5055688560611944
31
0
0
SPLINE
5
127
100
AcDbEntity
8
0
100
AcDbSpline
70
0
71
3
72
10
73
6
74
0
42
0.000000001
43
0.0000000001
44
0.0000000001
40
0
40
0
40
0
40
0
40
0.086660392898111616
40
0.086660392898111616
40
0.17332078579622326
40
0.17332078579622326
40
0.17332078579622326
40
0.17332078579622326
10
-9.6257727742738008e-16
20
-1.5055688560610989
30
0
10
-3.6028524710576849e-16
20
-1.2167008797340595
30
0
10
0.031291765405229294
20
-0.92868094978559135
30
0
10
0.1553628814022612
20
-0.36442463465534336
30
0
10
0.24777798926302663
20
-0.089844769281387238
30
0
10
0.36895429896812831
20
0.17237843662063015
30
0
0
SPLINE
5
128
100
AcDbEntity
8
0
100
AcDbSpline
70
4
71
2
72
6
73
3
74
0
42
0.000000001
43
0.0000000001
44
0.0000000001
40
0.080030904333387151
40
0.080030904333387151
40
0.080030904333387151
40
2.0846219593555491
40
2.0846219593555491
40
2.0846219593555491
41
1.1459958939254935
41
2.9023244302044922
41
1.0466212380566378
10
9.935163222424185
20
-88.647560318601421
30
0
10
5.4504565100719313
20
-98.152497341534982
30
-1.1102230246251563e-15
10
0.36895429896814003
20
-87.156224193453369
30
1.1102230246251563e-15
0
LINE
5
129
100
AcDbEntity
8
0
100
AcDbLine
10
13.552706615654175
20
-86.354422878416344
30
0
11
238.85979338434592
21
-86.354422878416344
31
0
0
LWPOLYLINE
5
130
100
AcDbEntity
8
0
100
AcDbPolyline
90
8
70
1
43
0.0
10
31.100000000000001
20
-3.6544228784163657
10
31.100000000000001
20
-16.654422878416366
42
0.41421356237309243
10
31.600000000000001
20
-17.154422878416366
10
44.600000000000001
20
-17.154422878416366
42
0.41421356237308982
10
45.100000000000009
20
-16.654422878416366
10
45.100000000000009
20
-3.6544228784163679
42
0.41421356237308982
10
44.600000000000001
20
-3.1544228784163675
10
31.600000000000001
20
-3.154422878416367
42
0.41421356237309598
0
LWPOLYLINE
5
131
100
AcDbEntity
8
0
100
AcDbPolyline
90
8
70
1
43
0.0
10
106.51250000000003
20
-3.1544228784163546
10
93.512500000000003
20
-3.1544228784163635
42
0.41421356237312168
10
93.01249999999996
20
-3.6544228784163639
10
93.012500000000017
20
-16.654422878416359
42
0.41421356237311846
10
93.512500000000003
20
-17.154422878416359
10
106.51250000000003
20
-17.154422878416359
42
0.41421356237311846
10
107.01250000000002
20
-16.654422878416366
10
107.01250000000002
20
-3.6544228784163613
42
0.4142135623730866
0
LWPOLYLINE
5
132
100
AcDbEntity
8
0
100
AcDbPolyline
90
8
70
1
43
0.0
10
41.125
20
-31.729422878416376
42
0.41421356237308204
10
40.625
20
-32.229422878416372
10
40.625
20
-45.229422878416365
42
0.414213562373069
10
41.125
20
-45.729422878416386
10
54.125000000000014
20
-45.729422878416358
42
0.41421356237311063
10
54.625
20
-45.229422878416365
10
54.625
20
-32.229422878416372
42
0.41421356237307944
10
54.125000000000014
20
-31.729422878416376
0
LWPOLYLINE
5
133
100
AcDbEntity
8
0
100
AcDbPolyline
90
8
70
1
43
0.0
10
21.57500000000001
20
-32.229422878416365
10
21.57500000000001
20
-45.229422878416365
42
0.41421356237308204
10
22.07500000000001
20
-45.729422878416379
10
35.07500000000001
20
-45.729422878416358
42
0.41421356237309503
10
35.57500000000001
20
-45.229422878416365
10
35.57500000000001
20
-32.229422878416372
42
0.41421356237309243
10
35.075000000000003
20
-31.729422878416376
10
22.074999999999999
20
-31.729422878416376
42
0.4142135623730846
0
LWPOLYLINE
5
134
100
AcDbEntity
8
0
100
AcDbPolyline
90
8
70
1
43
0.0
10
16.025000000000002
20
-45.729422878416358
42
0.41421356237309631
10
16.525000000000002
20
-45.229422878416365
10
16.525000000000002
20
-32.229422878416372
42
0.41421356237309243
10
16.025000000000002
20
-31.729422878416376
10
3.0250000000000021
20
-31.729422878416376
42
0.41421356237309598
10
2.5250000000000035
20
-32.229422878416372
10
2.5250000000000035
20
-45.229422878416365
42
0.41421356237307977
10
3.0250000000000021
20
-45.729422878416386
0
LWPOLYLINE
5
135
100
AcDbEntity
8
0
100
AcDbPolyline
90
8
70
1
43
0.0
10
92.224999999999994
20
-45.729422878416351
42
0.41421356237311585
10
92.725000000000023
20
-45.229422878416365
10
92.725000000000023
20
-32.229422878416372
42
0.41421356237309764
10
92.224999999999994
20
-31.729422878416376
10
79.22499999999998
20
-31.729422878416376
42
0.41421356237309503
10
78.725000000000023
20
-32.229422878416372
10
78.724999999999994
20
-45.229422878416365
42
0.41421356237309503
10
79.22499999999998
20
-45.729422878416358
0
LWPOLYLINE
5
136
100
AcDbEntity
8
0
100
AcDbPolyline
90
8
70
1
43
0.0
10
69.700000000000003
20
-17.154422878416366
10
82.700000000000017
20
-17.154422878416366
42
0.41421356237305601
10
83.200000000000017
20
-16.654422878416366
10
83.200000000000017
20
-3.6544228784163635
42
0.41421356237305795
10
82.700000000000017
20
-3.1544228784163488
10
69.700000000000003
20
-3.1544228784163653
42
0.41421356237312462
10
69.200000000000003
20
-3.6544228784163639
10
69.200000000000003
20
-16.654422878416366
42
0.41421356237309631
0
LWPOLYLINE
5
137
100
AcDbEntity
8
0
100
AcDbPolyline
90
8
70
1
43
0.0
10
174.47500000000005
20
-31.729422878416358
42
0.41421356237301177
10
173.97500000000005
20
-32.229422878416358
10
173.97500000000005
20
-45.229422878416365
42
0.41421356237314705
10
174.47500000000005
20
-45.729422878416386
10
187.47499999999999
20
-45.729422878416351
42
0.41421356237313145
10
187.97499999999999
20
-45.229422878416365
10
187.97499999999999
20
-32.229422878416358
42
0.41421356237314189
10
187.47499999999999
20
-31.729422878416358
0
LWPOLYLINE
5
138
100
AcDbEntity
8
0
100
AcDbPolyline
90
8
70
1
43
0.0
10
116.82500000000003
20
-32.229422878416365
10
116.82500000000003
20
-45.229422878416365
42
0.41421356237311585
10
117.32500000000002
20
-45.729422878416386
10
130.32499999999999
20
-45.729422878416351
42
0.41421356237310542
10
130.82499999999999
20
-45.229422878416365
10
130.82499999999999
20
-32.229422878416365
42
0.41421356237309243
10
130.32499999999999
20
-31.729422878416361
10
117.32500000000002
20
-31.729422878416361
42
0.41421356237311585
0
LWPOLYLINE
5
139
100
AcDbEntity
8
0
100
AcDbPolyline
90
8
70
1
43
0.0
10
41.125
20
-64.779422878416369
10
54.125000000000014
20
-64.779422878416369
42
0.41421356237311063
10
54.625
20
-64.279422878416369
10
54.625
20
-51.279422878416383
42
0.41421356237307422
10
54.125000000000014
20
-50.779422878416383
10
41.125
20
-50.779422878416383
42
0.41421356237309503
10
40.625
20
-51.279422878416383
10
40.625
20
-64.279422878416369
42
0.41421356237309503
0
LWPOLYLINE
5
140
100
AcDbEntity
8
0
100
AcDbPolyline
90
8
70
1
43
0.0
10
149.375
20
-31.729422878416361
10
136.375
20
-31.729422878416361
42
0.41421356237308982
10
135.87500000000003
20
-32.229422878416365
10
135.875
20
-45.229422878416365
42
0.41421356237304302
10
136.375
20
-45.729422878416386
10
149.375
20
-45.729422878416351
42
0.41421356237310542
10
149.875
20
-45.229422878416365
10
149.875
20
-32.229422878416365
42
0.41421356237309243
0
LWPOLYLINE
5
141
100
AcDbEntity
8
0
100
AcDbPolyline
90
8
70
1
43
0.0
10
22.07500000000001
20
-64.779422878416369
10
35.07500000000001
20
-64.779422878416369
42
0.41421356237310281
10
35.57500000000001
20
-64.279422878416369
10
35.57500000000001
20
-51.279422878416383
42
0.41421356237309503
10
35.07500000000001
20
-50.779422878416383
10
22.07500000000001
20
-50.779422878416383
42
0.41421356237310025
10
21.575000000000003
20
-51.279422878416383
10
21.57500000000001
20
-64.279422878416369
42
0.41421356237307161
0
LWPOLYLINE
5
142
100
AcDbEntity
8
0
100
AcDbPolyline
90
8
70
1
43
0.0
10
2.5250000000000044
20
-64.279422878416369
42
0.41421356237307522
10
3.0250000000000044
20
-64.779422878416369
10
16.025000000000006
20
-64.779422878416369
42
0.41421356237310414
10
16.525000000000006
20
-64.279422878416369
10
16.525000000000006
20
-51.279422878416383
42
0.41421356237307422
10
16.025000000000006
20
-50.779422878416383
10
3.025000000000003
20
-50.779422878416383
42
0.41421356237309537
10
2.5250000000000044
20
-51.279422878416383
0
LWPOLYLINE
5
143
100
AcDbEntity
8
0
100
AcDbPolyline
90
8
70
1
43
0.0
10
59.675000000000004
20
-45.229422878416365
42
0.41421356237310025
10
60.174999999999997
20
-45.729422878416372
10
73.174999999999983
20
-45.729422878416351
42
0.41421356237310025
10
73.674999999999983
20
-45.229422878416365
10
73.674999999999983
20
-32.229422878416372
42
0.41421356237309764
10
73.174999999999983
20
-31.729422878416372
10
60.174999999999997
20
-31.729422878416376
42
0.41421356237311063
10
59.675000000000011
20
-32.229422878416372
0
LWPOLYLINE
5
144
100
AcDbEntity
8
0
100
AcDbPolyline
90
8
70
1
43
0.0
10
98.275000000000006
20
-31.729422878416376
42
0.41421356237311846
10
97.77500000000002
20
-32.229422878416372
10
97.77500000000002
20
-45.229422878416365
42
0.41421356237311585
10
98.275000000000006
20
-45.729422878416386
10
111.27500000000001
20
-45.729422878416351
42
0.41421356237310542
10
111.77500000000002
20
-45.229422878416365
10
111.77500000000002
20
-32.229422878416365
42
0.41421356237309243
10
111.27500000000001
20
-31.729422878416358
0
LWPOLYLINE
5
145
100
AcDbEntity
8
0
100
AcDbPolyline
90
8
70
1
43
0.0
10
44.600000000000009
20
-69.829422878416381
10
31.600000000000005
20
-69.829422878416381
42
0.41421356237308982
10
31.100000000000009
20
-70.329422878416381
10
31.100000000000012
20
-83.329422878416381
42
0.4142135623730846
10
31.600000000000009
20
-83.829422878416366
10
44.600000000000009
20
-83.829422878416381
42
0.41421356237305862
10
45.100000000000023
20
-83.329422878416381
10
45.100000000000009
20
-70.329422878416381
42
0.41421356237308982
0
LWPOLYLINE
5
146
100
AcDbEntity
8
0
100
AcDbPolyline
90
8
70
1
43
0.0
10
154.92500000000001
20
-45.229422878416365
42
0.41421356237305862
10
155.42500000000001
20
-45.729422878416379
10
168.42500000000001
20
-45.729422878416351
42
0.41421356237297535
10
168.92499999999998
20
-45.229422878416365
10
168.92500000000001
20
-32.229422878416365
42
0.41421356237312623
10
168.42500000000001
20
-31.729422878416376
10
155.42500000000001
20
-31.729422878416361
42
0.41421356237308982
10
154.92500000000004
20
-32.229422878416365
0
LWPOLYLINE
5
147
100
AcDbEntity
8
0
100
AcDbPolyline
90
8
70
1
43
0.0
10
117.32500000000002
20
-64.779422878416369
10
130.32499999999999
20
-64.779422878416369
42
0.41421356237313145
10
130.82499999999999
20
-64.279422878416369
10
130.82499999999999
20
-51.279422878416376
42
0.41421356237309503
10
130.32499999999999
20
-50.779422878416369
10
117.32500000000002
20
-50.779422878416369
42
0.41421356237310542
10
116.82500000000003
20
-51.279422878416376
10
116.82500000000003
20
-64.279422878416369
42
0.41421356237311585
0
LWPOLYLINE
5
148
100
AcDbEntity
8
0
100
AcDbPolyline
90
8
70
1
43
0.0
10
25.550000000000004
20
-69.829422878416381
10
12.550000000000006
20
-69.829422878416381
42
0.41421356237307944
10
12.050000000000008
20
-70.329422878416381
10
12.050000000000004
20
-83.329422878416381
42
0.41421356237305601
10
12.550000000000006
20
-83.829422878416366
10
25.550000000000004
20
-83.829422878416381
42
0.4142135623730534
10
26.050000000000011
20
-83.329422878416381
10
26.050000000000004
20
-70.329422878416381
42
0.41421356237308721
0
LWPOLYLINE
5
149
100
AcDbEntity
8
0
100
AcDbPolyline
90
8
70
1
43
0.0
10
92.725000000000023
20
-51.279422878416376
42
0.41421356237308982
10
92.224999999999994
20
-50.779422878416362
10
79.22499999999998
20
-50.779422878416369
42
0.41421356237307944
10
78.724999999999994
20
-51.279422878416376
10
78.724999999999994
20
-64.279422878416369
42
0.41421356237309503
10
79.22499999999998
20
-64.779422878416369
10
92.224999999999994
20
-64.779422878416369
42
0.41421356237310025
10
92.725000000000023
20
-64.279422878416369
0
LWPOLYLINE
5
150
100
AcDbEntity
8
0
100
AcDbPolyline
90
8
70
1
43
0.0
10
111.77500000000002
20
-64.279422878416369
10
111.77500000000002
20
-51.279422878416376
42
0.41421356237309503
10
111.27500000000001
20
-50.779422878416369
10
98.275000000000006
20
-50.779422878416369
42
0.41421356237310542
10
97.77500000000002
20
-51.279422878416376
10
97.77500000000002
20
-64.279422878416369
42
0.41421356237311585
10
98.275000000000006
20
-64.779422878416369
10
111.27500000000001
20
-64.779422878416369
42
0.41421356237313145
0
LWPOLYLINE
5
151
100
AcDbEntity
8
0
100
AcDbPolyline
90
8
70
1
43
0.0
10
174.47500000000005
20
-50.779422878416369
42
0.41421356237313145
10
173.97499999999997
20
-51.279422878416376
10
173.97500000000005
20
-64.279422878416369
42
0.41421356237312623
10
174.47500000000005
20
-64.779422878416369
10
187.47499999999999
20
-64.779422878416369
42
0.41421356237313145
10
187.97499999999999
20
-64.279422878416369
10
187.97499999999999
20
-51.279422878416376
42
0.41421356237311585
10
187.47499999999999
20
-50.779422878416362
0
LWPOLYLINE
5
152
100
AcDbEntity
8
0
100
AcDbPolyline
90
8
70
1
43
0.0
10
59.675000000000004
20
-64.279422878416369
10
59.675000000000004
20
-51.279422878416383
42
-0.41421356237309503
10
60.174999999999997
20
-50.779422878416383
10
73.174999999999983
20
-50.779422878416369
42
-0.41421356237313145
10
73.674999999999983
20
-51.279422878416376
10
73.674999999999983
20
-64.279422878416369
42
-0.4142135623730846
10
73.174999999999983
20
-64.779422878416369
10
60.174999999999997
20
-64.779422878416369
42
-0.41421356237309503
0
LWPOLYLINE
5
153
100
AcDbEntity
8
0
100
AcDbPolyline
90
8
70
1
43
0.0
10
69.700000000000017
20
-69.829422878416366
42
0.41421356237308982
10
69.200000000000017
20
-70.329422878416366
10
69.200000000000017
20
-83.329422878416381
42
0.4142135623730846
10
69.700000000000003
20
-83.829422878416381
10
82.700000000000017
20
-83.829422878416381
42
0.4142135623730534
10
83.200000000000017
20
-83.329422878416381
10
83.200000000000017
20
-70.329422878416366
42
0.4142135623730534
10
82.700000000000031
20
-69.829422878416366
0
LWPOLYLINE
5
154
100
AcDbEntity
8
0
100
AcDbPolyline
90
8
70
1
43
0.0
10
120.21299999999999
20
-85.329422878416352
10
120.21299999999999
20
-68.329422878416381
42
0.41421356237312101
10
119.71299999999999
20
-67.829422878416366
10
113.71299999999999
20
-67.829422878416381
42
0.41421356237312623
10
113.21300000000001
20
-68.329422878416381
10
113.21300000000001
20
-85.329422878416381
42
0.41421356237304302
10
113.71299999999999
20
-85.829422878416352
10
119.71299999999999
20
-85.829422878416381
42
0.4142135623730846
0
LWPOLYLINE
5
155
100
AcDbEntity
8
0
100
AcDbPolyline
90
8
70
1
43
0.0
10
98.275000000000006
20
-69.829422878416366
42
0.41421356237312101
10
97.77500000000002
20
-70.329422878416366
10
97.77500000000002
20
-83.329422878416381
42
0.41421356237304302
10
98.275000000000006
20
-83.829422878416381
10
111.27500000000001
20
-83.829422878416381
42
0.41421356237307422
10
111.77500000000002
20
-83.329422878416381
10
111.77500000000002
20
-70.329422878416366
42
0.41421356237311585
10
111.27500000000001
20
-69.829422878416366
0
LWPOLYLINE
5
156
100
AcDbEntity
8
0
100
AcDbPolyline
90
8
70
1
43
0.0
10
145.90000000000001
20
-83.829422878416352
10
158.90000000000001
20
-83.829422878416352
42
0.4142135623730534
10
159.40000000000001
20
-83.329422878416381
10
159.40000000000001
20
-70.329422878416366
42
0.41421356237311585
10
158.90000000000001
20
-69.829422878416366
10
145.90000000000001
20
-69.829422878416366
42
0.41421356237310542
10
145.40000000000003
20
-70.329422878416366
10
145.40000000000001
20
-83.329422878416352
42
0.41421356237304302
0
LWPOLYLINE
5
157
100
AcDbEntity
8
0
100
AcDbPolyline
90
8
70
1
43
0.0
10
140.34999999999999
20
-83.329422878416381
10
140.34999999999999
20
-70.329422878416366
42
0.41421356237311585
10
139.84999999999999
20
-69.829422878416366
10
126.85000000000001
20
-69.829422878416366
42
0.41421356237310542
10
126.35000000000004
20
-70.329422878416366
10
126.34999999999999
20
-83.329422878416381
42
0.4142135623730534
10
126.85000000000001
20
-83.829422878416352
10
139.84999999999999
20
-83.829422878416352
42
0.4142135623730534
0
LWPOLYLINE
5
158
100
AcDbEntity
8
0
100
AcDbPolyline
90
8
70
1
43
0.0
10
136.375
20
-64.779422878416369
10
149.375
20
-64.779422878416369
42
0.41421356237313145
10
149.875
20
-64.279422878416369
10
149.875
20
-51.279422878416376
42
0.41421356237309503
10
149.375
20
-50.779422878416362
10
136.375
20
-50.779422878416369
42
0.41421356237308982
10
135.87500000000003
20
-51.279422878416376
10
135.875
20
-64.279422878416369
42
0.4142135623730534
0
LWPOLYLINE
5
159
100
AcDbEntity
8
0
100
AcDbPolyline
90
8
70
1
43
0.0
10
89.837000000000003
20
-85.829422878416352
10
95.837000000000003
20
-85.829422878416381
42
0.4142135623730846
10
96.337000000000018
20
-85.329422878416352
10
96.337000000000018
20
-68.329422878416381
42
0.41421356237312101
10
95.837000000000003
20
-67.829422878416366
10
89.837000000000003
20
-67.829422878416381
42
0.41421356237310542
10
89.337000000000018
20
-68.329422878416381
10
89.337000000000003
20
-85.329422878416381
42
0.41421356237307422
0
LWPOLYLINE
5
160
100
AcDbEntity
8
0
100
AcDbPolyline
90
8
70
1
43
0.0
10
217.33750000000001
20
-69.829422878416366
42
0.4142135623730378
10
216.83750000000003
20
-70.329422878416366
10
216.83750000000003
20
-83.329422878416352
42
0.41421356237307422
10
217.33750000000001
20
-83.829422878416352
10
230.33750000000001
20
-83.829422878416352
42
0.41421356237315748
10
230.83750000000006
20
-83.329422878416352
10
230.83750000000006
20
-70.329422878416366
42
0.41421356237306384
10
230.33750000000003
20
-69.829422878416352
0
LWPOLYLINE
5
161
100
AcDbEntity
8
0
100
AcDbPolyline
90
8
70
1
43
0.0
10
155.42500000000001
20
-64.779422878416369
10
168.42500000000001
20
-64.779422878416369
42
0.41421356237300661
10
168.92500000000001
20
-64.279422878416369
10
168.92500000000001
20
-51.279422878416376
42
0.41421356237313667
10
168.42500000000001
20
-50.779422878416369
10
155.42500000000001
20
-50.779422878416369
42
0.41421356237308982
10
154.92500000000004
20
-51.279422878416376
10
154.92500000000001
20
-64.279422878416369
42
0.4142135623730534
0
LWPOLYLINE
5
162
100
AcDbEntity
8
0
100
AcDbPolyline
90
8
70
1
43
0.0
10
197.78750000000002
20
-40.466922878416362
42
0.4142135623730846
10
198.28749999999999
20
-40.966922878416383
10
211.28749999999999
20
-40.966922878416341
42
0.41421356237307422
10
211.78750000000002
20
-40.466922878416362
10
211.78750000000002
20
-27.466922878416362
42
0.41421356237314444
10
211.28749999999999
20
-26.966922878416341
10
198.28749999999999
20
-26.966922878416359
42
0.41421356237298579
10
197.78750000000002
20
-27.466922878416362
0
LWPOLYLINE
5
163
100
AcDbEntity
8
0
100
AcDbPolyline
90
8
70
1
43
0.0
10
64.150000000000006
20
-16.654422878416366
10
64.150000000000006
20
-3.6544228784163657
42
0.41421356237307944
10
63.65000000000002
20
-3.154422878416367
10
50.650000000000013
20
-3.1544228784163657
42
0.41421356237309698
10
50.150000000000013
20
-3.6544228784163657
10
50.150000000000013
20
-16.654422878416366
42
0.41421356237309631
10
50.650000000000013
20
-17.154422878416366
10
63.65000000000002
20
-17.154422878416366
42
0.41421356237307944
0
LWPOLYLINE
5
164
100
AcDbEntity
8
0
100
AcDbPolyline
90
8
70
1
43
0.0
10
112.0625
20
-3.654422878416359
10
112.0625
20
-16.654422878416359
42
0.41421356237309631
10
112.56250000000001
20
-17.154422878416366
10
125.5625
20
-17.154422878416359
42
0.41421356237306511
10
126.06250000000001
20
-16.654422878416366
10
126.06250000000001
20
-3.6544228784163613
42
0.41421356237305795
10
125.5625
20
-3.154422878416355
10
112.56250000000001
20
-3.154422878416363
42
0.41421356237310836
0
LWPOLYLINE
5
165
100
AcDbEntity
8
0
100
AcDbPolyline
90
8
70
1
43
0.0
10
50.650000000000013
20
-83.829422878416352
42
-0.41421356237310542
10
50.15000000000002
20
-83.329422878416381
10
50.150000000000013
20
-70.329422878416366
42
-0.41421356237308982
10
50.650000000000013
20
-69.829422878416381
10
63.65000000000002
20
-69.829422878416381
42
-0.41421356237309503
10
64.150000000000006
20
-70.329422878416381
10
64.150000000000034
20
-83.329422878416381
42
-0.41421356237305862
10
63.65000000000002
20
-83.829422878416366
0
LWPOLYLINE
5
166
100
AcDbEntity
8
0
100
AcDbPolyline
90
8
70
1
43
0.0
10
249.38749999999999
20
-3.1544228784163453
10
236.38750000000002
20
-3.1544228784163542
42
0.41421356237297924
10
235.88750000000002
20
-3.6544228784163524
10
235.88750000000002
20
-16.654422878416351
42
0.41421356237314055
10
236.38750000000002
20
-17.154422878416366
10
249.38749999999999
20
-17.154422878416355
42
0.41421356237297924
10
249.88749999999996
20
-16.654422878416351
10
249.88749999999999
20
-3.6544228784163524
42
0.41421356237312623
0
LWPOLYLINE
5
167
100
AcDbEntity
8
0
100
AcDbPolyline
90
8
70
1
43
0.0
10
235.88750000000002
20
-40.466922878416362
10
235.88750000000002
20
-27.466922878416355
42
-0.4142135623730222
10
236.38750000000002
20
-26.966922878416359
10
249.38749999999999
20
-26.966922878416337
42
-0.41421356237299356
10
249.88749999999999
20
-27.466922878416362
10
249.88749999999999
20
-40.466922878416362
42
-0.41421356237304302
10
249.38749999999999
20
-40.966922878416348
10
236.38750000000002
20
-40.966922878416341
42
-0.41421356237314705
0
LWPOLYLINE
5
168
100
AcDbEntity
8
0
100
AcDbPolyline
90
8
70
1
43
0.0
10
178.44999999999999
20
-83.329422878416381
10
178.44999999999999
20
-70.329422878416366
42
0.41421356237313145
10
177.94999999999999
20
-69.829422878416366
10
164.95000000000005
20
-69.829422878416366
42
0.41421356237306384
10
164.44999999999999
20
-70.329422878416352
10
164.44999999999999
20
-83.329422878416352
42
0.41421356237310542
10
164.95000000000005
20
-83.829422878416352
10
177.94999999999999
20
-83.829422878416352
42
0.41421356237315748
0
ENDSEC
0
SECTION
2
OBJECTS
0
DICTIONARY
5
C
100
AcDbDictionary
3
ACAD_GROUP
350
D
3
ACAD_MLINESTYLE
350
17
0
DICTIONARY
5
D
100
AcDbDictionary
0
DICTIONARY
5
1A
330
C
100
AcDbDictionary
0
DICTIONARY
5
17
100
AcDbDictionary
0
ENDSEC
0
EOF
